<?xml version="1.0" standalone="no"?>
<!DOCTYPE svg PUBLIC "-//W3C//DTD SVG 1.1//EN" "http://www.w3.org/Graphics/SVG/1.1/DTD/svg11.dtd" >
<svg xmlns="http://www.w3.org/2000/svg">
<metadata></metadata>
<defs>
<font id="estandarregular" horiz-adv-x="1189" >
<font-face units-per-em="2048" ascent="1536" descent="-512" />
<missing-glyph horiz-adv-x="468" />
<glyph horiz-adv-x="2048" />
<glyph horiz-adv-x="2048" />
<glyph unicode="&#xd;" horiz-adv-x="2048" />
<glyph unicode=" "  horiz-adv-x="468" />
<glyph unicode="&#x09;" horiz-adv-x="468" />
<glyph unicode="&#xa0;" horiz-adv-x="468" />
<glyph unicode="!" horiz-adv-x="487" d="M141 94q0 53 27.5 80t73.5 27q106 0 106 -107q0 -114 -106 -114q-46 0 -73.5 29t-27.5 85zM150 1077v357h190v-357l-18 -719h-154z" />
<glyph unicode="&#x22;" horiz-adv-x="579" d="M68 1536h184l-25 -395h-135zM330 1536h184l-25 -395h-135z" />
<glyph unicode="#" horiz-adv-x="1282" d="M39 403l35 160h225l63 307h-231l37 158h227l84 406h170l-82 -406h267l81 406h175l-86 -406h239l-35 -158h-233l-68 -307h242l-35 -160h-237l-84 -403h-170l82 403h-269l-80 -403h-170l82 403h-229zM471 563h268l62 307h-266z" />
<glyph unicode="$" horiz-adv-x="1148" d="M113 305l178 55q23 -71 81.5 -122.5t141.5 -63.5v457q-387 65 -387 379v39q0 166 96.5 270t290.5 117v202h131v-204q142 -17 233.5 -94t125.5 -193l-177 -49q-18 60 -66 104.5t-116 54.5v-452q406 -59 406 -365v-47q0 -173 -104 -278.5t-302 -118.5v-201h-131v203 q-157 17 -262 99.5t-139 207.5zM313 1030q0 -93 51 -138.5t150 -66.5v439q-101 -7 -151 -65.5t-50 -147.5v-21zM645 170q107 9 163 69.5t56 157.5v19q0 84 -57 129.5t-162 64.5v-440z" />
<glyph unicode="%" horiz-adv-x="1794" d="M104 891v260q0 141 87 224t229 83t227.5 -83t85.5 -224v-260q0 -140 -85.5 -223.5t-227.5 -83.5t-229 83.5t-87 223.5zM274 907q0 -86 39 -131t107 -45q66 0 105.5 45t39.5 131v226q0 86 -39.5 132t-105.5 46q-67 0 -106.5 -46t-39.5 -132v-226zM303 0l1051 1528l139 -94 l-1057 -1528zM1065 287v260q0 142 86 224.5t229 82.5q139 0 224.5 -83t85.5 -224v-260q0 -141 -85.5 -225.5t-224.5 -84.5q-143 0 -229 84t-86 226zM1231 301q0 -85 40 -130.5t109 -45.5q66 0 105 46t39 130v227q0 86 -39 132.5t-105 46.5q-69 0 -109 -46.5t-40 -132.5v-227 z" />
<glyph unicode="&#x26;" horiz-adv-x="1343" d="M113 334v24q0 200 278 402q-83 93 -133.5 178.5t-50.5 175.5q0 152 97 250t271 98q193 0 282 -86.5t89 -238.5q0 -44 -9 -82.5t-31.5 -74.5t-43 -62t-61.5 -61t-67 -55t-79 -59l287 -329q39 65 59.5 142t18.5 132l180 -31q-16 -205 -135 -387l164 -180l-142 -117 l-141 156q-74 -73 -172.5 -115.5t-212.5 -42.5q-214 0 -331 91t-117 272zM311 338q0 -197 258 -197q153 0 262 119l-325 373q-99 -76 -147 -143.5t-48 -145.5v-6zM397 1122q0 -44 21 -88t43.5 -71.5t66.5 -74.5q10 -11 15 -16q5 4 35 25.5t37 27t31.5 24.5t32 27.5t25 26 t23.5 29.5t15.5 29t12.5 34t3 35q0 82 -41.5 124t-141.5 42q-178 0 -178 -174z" />
<glyph unicode="'" horiz-adv-x="317" d="M68 1536h184l-25 -395h-135z" />
<glyph unicode="(" horiz-adv-x="610" d="M127 264v783q0 198 107.5 337t289.5 168l35 -163q-112 -17 -179 -118.5t-67 -250.5v-729q0 -149 67 -250.5t179 -118.5l-35 -164q-182 29 -289.5 168t-107.5 338z" />
<glyph unicode=")" horiz-adv-x="610" d="M51 -78q113 17 180.5 118.5t67.5 250.5v729q0 149 -67.5 250.5t-180.5 118.5l37 163q182 -29 289.5 -168t107.5 -337v-783q0 -199 -107.5 -338t-289.5 -168z" />
<glyph unicode="*" horiz-adv-x="897" d="M80 1135l49 159l254 -96l-8 283h155l-6 -279l248 92l49 -159l-260 -78l166 -226l-127 -96l-147 238l-152 -238l-129 99l170 225z" />
<glyph unicode="+" horiz-adv-x="1150" d="M104 530v181h383v440h179v-440h385v-181h-385v-440h-179v440h-383z" />
<glyph unicode="," horiz-adv-x="397" d="M41 -115q37 17 62.5 47t25.5 68q-43 29 -43 100q0 63 30 95t83 32q54 0 85 -32t31 -95q0 -41 -9.5 -82.5t-33 -88.5t-71.5 -86t-115 -58z" />
<glyph unicode="-" horiz-adv-x="780" d="M104 530v177h574v-177h-574z" />
<glyph unicode="." horiz-adv-x="397" d="M86 98q0 64 30 96.5t83 32.5q54 0 85 -32.5t31 -96.5q0 -60 -31 -90.5t-85 -30.5q-53 0 -83 30.5t-30 90.5z" />
<glyph unicode="/" horiz-adv-x="962" d="M16 -225l775 1827l159 -66l-778 -1823z" />
<glyph unicode="0" horiz-adv-x="1134" d="M115 422v590q0 207 124.5 328.5t329.5 121.5q204 0 328.5 -121.5t124.5 -328.5v-590q0 -207 -124.5 -329t-328.5 -122t-329 122t-125 329zM311 451q0 -145 68.5 -222t189.5 -77q119 0 187.5 77t68.5 222v532q0 145 -68.5 222t-187.5 77q-121 0 -189.5 -77t-68.5 -222 v-532z" />
<glyph unicode="1" horiz-adv-x="567" d="M-27 1219l303 215h168v-1434h-196v1194l-180 -121z" />
<glyph unicode="2" horiz-adv-x="1124" d="M106 0v127l566 659q137 159 137 275q0 97 -62.5 160t-179.5 63q-85 0 -142 -39t-83 -106l-190 55q41 120 149.5 194t265.5 74q216 0 330.5 -109.5t114.5 -287.5q0 -118 -56 -217t-159 -215l-394 -455h631v-178h-928z" />
<glyph unicode="3" horiz-adv-x="1103" d="M113 248l182 59q28 -72 88.5 -114.5t151.5 -42.5q247 0 247 239v35q0 254 -231 254h-156v164h156q103 0 157 62t54 165q-2 98 -56 159.5t-165 61.5q-89 0 -150.5 -40t-83.5 -109l-178 53q38 119 146 193.5t266 74.5q206 0 310.5 -107.5t104.5 -281.5q0 -86 -37 -168.5 t-104 -138.5q75 -36 125.5 -128t50.5 -189v-64q0 -190 -117 -302t-339 -112q-164 0 -274 76.5t-148 200.5z" />
<glyph unicode="4" horiz-adv-x="1142" d="M68 276v125l505 1053l201 -27l-463 -972h445v518l196 26v-544h144v-179h-144v-276h-196v276h-688z" />
<glyph unicode="5" horiz-adv-x="1101" d="M125 252l184 61q55 -161 232 -161q121 0 184 61t63 172v102q0 142 -59.5 199t-175.5 57q-144 0 -270 -86l-148 95l88 682h717v-179h-543l-49 -393q42 27 103.5 43.5t121.5 16.5q200 0 312 -101t112 -311v-127q0 -188 -119.5 -299t-336.5 -111q-165 0 -270.5 75.5 t-145.5 203.5z" />
<glyph unicode="6" horiz-adv-x="1153" d="M115 383v629q0 205 125.5 327.5t334.5 122.5q173 0 285.5 -75t151.5 -211l-189 -56q-22 78 -86 121t-162 43q-124 0 -193 -78.5t-69 -222.5v-213q57 41 142 66.5t168 25.5q193 0 305 -99t112 -302v-64q0 -205 -125.5 -315.5t-334.5 -110.5q-211 0 -338 104t-127 308z M313 416q0 -264 267 -264q125 0 194.5 67.5t69.5 210.5q0 136 -57.5 194t-180.5 58q-85 0 -162.5 -25.5t-130.5 -70.5v-170z" />
<glyph unicode="7" horiz-adv-x="919" d="M33 1255v179h866v-125l-539 -1329l-202 26l512 1249h-637z" />
<glyph unicode="8" horiz-adv-x="1173" d="M111 385v70q0 95 47.5 182.5t120.5 134.5q-65 57 -103.5 139.5t-38.5 165.5q0 175 115 280t336 105q223 0 337.5 -104.5t114.5 -280.5q0 -82 -37.5 -164.5t-103.5 -140.5q75 -44 121.5 -132t46.5 -185v-70q0 -192 -119 -303t-360 -111q-240 0 -358.5 110.5t-118.5 303.5z M317 389q0 -115 64 -176t207 -61q142 0 206 61t64 176v45q0 114 -57 182t-160 68h-104q-104 0 -162 -68t-58 -182v-45zM332 1071q0 -101 53.5 -166t157.5 -65h82q105 0 162 65.5t57 165.5q0 97 -66 157t-190 60q-125 0 -190.5 -60t-65.5 -157z" />
<glyph unicode="9" horiz-adv-x="1146" d="M115 983v57q0 205 124.5 313.5t333.5 108.5q211 0 336 -101.5t125 -305.5v-633q0 -205 -125.5 -328t-330.5 -123q-170 0 -286.5 78.5t-152.5 210.5l189 53q23 -77 88.5 -119t161.5 -42q121 0 190.5 78t69.5 221v200q-108 -65 -303 -65q-194 0 -307 98t-113 299zM313 1012 q0 -132 57.5 -189t180.5 -57q176 0 287 65v189q0 262 -265 262q-125 0 -192.5 -63.5t-67.5 -206.5z" />
<glyph unicode=":" horiz-adv-x="438" d="M106 102q0 64 30 95.5t83 31.5q55 0 86 -31.5t31 -95.5q0 -61 -31 -91.5t-86 -30.5q-53 0 -83 30.5t-30 91.5zM106 1038q0 64 30 96.5t83 32.5q54 0 85.5 -32.5t31.5 -96.5q0 -60 -31.5 -90t-85.5 -30q-53 0 -83 30t-30 90z" />
<glyph unicode=";" horiz-adv-x="444" d="M68 -115q35 18 60.5 47.5t25.5 67.5q-43 29 -43 100q0 62 30 94.5t82 32.5q54 0 85.5 -32.5t31.5 -94.5q0 -41 -9.5 -82.5t-33 -88.5t-71.5 -86t-115 -58zM113 1040q0 63 29.5 95t80.5 32q56 0 87.5 -32t31.5 -95q0 -61 -31.5 -91.5t-87.5 -30.5q-53 0 -82 30.5t-28 91.5 z" />
<glyph unicode="&#x3c;" horiz-adv-x="727" d="M104 500v147l414 402l107 -127l-344 -349l344 -348l-107 -125z" />
<glyph unicode="=" horiz-adv-x="1140" d="M104 274v177h934v-177h-934zM104 737v176h934v-176h-934z" />
<glyph unicode="&#x3e;" horiz-adv-x="727" d="M104 225l345 348l-345 349l107 127l414 -402v-147l-414 -400z" />
<glyph unicode="?" horiz-adv-x="1005" d="M94 1194q32 122 133.5 195t264.5 73q197 0 305 -96.5t108 -247.5v-33q0 -64 -13.5 -118t-42.5 -101t-58.5 -81t-75.5 -80q-92 -92 -127 -150.5t-35 -142.5v-70h-191v74q0 37 2 68t9.5 59t12.5 48t20 44.5t22 37t29.5 37t31 34t37.5 38t39 39.5q70 70 103.5 132.5 t33.5 144.5v16q0 80 -51.5 127t-158.5 47q-94 0 -147 -40t-69 -107zM350 90q0 55 30.5 85t78.5 30q49 0 79.5 -30t30.5 -85q0 -57 -30.5 -87t-79.5 -30q-48 0 -78.5 30.5t-30.5 86.5z" />
<glyph unicode="@" horiz-adv-x="1470" d="M109 414l79 604q18 133 115 234.5t236 152.5t295 51q91 0 175.5 -19.5t153 -57.5t117.5 -90.5t71 -123.5t11 -151l-59 -451q-15 -119 -77 -185.5t-169 -66.5q-131 0 -168 115q-41 -46 -108 -80.5t-122 -34.5q-127 0 -183.5 72.5t-39.5 208.5l33 246q17 134 91 204t196 70 h315l-72 -559q-9 -69 6 -99t62 -30q49 0 76.5 33t36.5 102l59 442q10 82 -21 147.5t-92 106t-139.5 61.5t-167.5 21t-173.5 -21.5t-156.5 -62t-121 -107t-59 -149.5l-78 -569q-11 -82 20 -148t92 -106.5t139.5 -62t166.5 -21.5q142 0 281 49l33 -108q-146 -60 -324 -60 q-115 0 -217.5 31t-176.5 87t-111.5 140.5t-24.5 184.5zM561 606q-28 -186 117 -186q51 0 107 34t87 78l62 478h-174q-76 0 -117 -48t-55 -143z" />
<glyph unicode="A" d="M8 0l492 1434h192l490 -1428l-211 -26l-131 419h-490l-123 -399h-219zM403 575h383l-192 621z" />
<glyph unicode="B" horiz-adv-x="1161" d="M125 0v1434h491q213 0 320.5 -86t107.5 -269v-82q0 -70 -34 -143t-101 -113q73 -31 120.5 -111t47.5 -177l-2 -99q0 -160 -103 -257t-304 -97h-543zM324 180h340q108 0 160.5 54t52.5 145v53q0 97 -49.5 153t-143.5 56h-360v-461zM324 813h342q85 0 132.5 51.5 t47.5 153.5v33q0 117 -51 158.5t-174 41.5h-297v-438z" />
<glyph unicode="C" horiz-adv-x="1095" d="M115 426v582q0 206 133 330t342 124q173 0 292 -78t156 -213l-188 -51q-28 75 -95.5 117.5t-164.5 42.5q-125 0 -200 -78.5t-75 -220.5v-526q0 -143 74.5 -222t200.5 -79q97 0 164.5 42t95.5 117l188 -51q-37 -135 -156 -213t-292 -78q-208 0 -341.5 125t-133.5 330z" />
<glyph unicode="D" d="M125 0v1434h504q207 0 326.5 -122.5t119.5 -332.5v-524q0 -210 -119.5 -332.5t-326.5 -122.5h-504zM324 180h305q120 0 184 77.5t64 223.5v471q0 146 -64 222.5t-184 76.5h-305v-1071z" />
<glyph unicode="E" horiz-adv-x="1017" d="M125 0v1434h813v-183h-614v-430h512v-180h-512v-461h628v-180h-827z" />
<glyph unicode="F" horiz-adv-x="991" d="M125 0v1434h815v-183h-616v-479h514v-180h-514v-592h-199z" />
<glyph unicode="G" horiz-adv-x="1167" d="M115 424v584q0 207 134.5 330.5t348.5 123.5q174 0 295 -78.5t158 -212.5l-191 -51q-27 74 -96 117t-166 43q-128 0 -205.5 -78.5t-77.5 -220.5v-528q0 -144 68.5 -223.5t189.5 -79.5q87 0 166 39t133 112v287h-288v180h485v-788h-141l-41 139q-155 -148 -350 -148 q-198 0 -310 121.5t-112 331.5z" />
<glyph unicode="H" horiz-adv-x="1198" d="M125 0v1434h199v-600h553v600h198v-1434h-198v651h-553v-651h-199z" />
<glyph unicode="I" horiz-adv-x="446" d="M125 0v1434h199v-1434h-199z" />
<glyph unicode="J" horiz-adv-x="585" d="M14 152q250 30 250 311v971h199v-1002q1 -194 -113.5 -314.5t-308.5 -137.5z" />
<glyph unicode="K" horiz-adv-x="1091" d="M125 0v1434h199v-705l518 705h243l-475 -637l486 -791l-215 -26l-394 651l-163 -219v-412h-199z" />
<glyph unicode="L" horiz-adv-x="966" d="M125 0v1434h199v-1254h624v-180h-823z" />
<glyph unicode="M" horiz-adv-x="1419" d="M125 0v1434h174l412 -848l411 848h174v-1434h-198l8 999l-307 -618h-191l-291 584l7 -965h-199z" />
<glyph unicode="N" horiz-adv-x="1232" d="M125 0v1434h213l582 -1078l-7 1078h197v-1434h-217l-578 1073l7 -1073h-197z" />
<glyph unicode="O" horiz-adv-x="1216" d="M115 426v582q0 138 67 242.5t178.5 158t249.5 53.5t250 -53.5t179 -158t67 -242.5v-582q0 -137 -67 -241.5t-179 -159t-250 -54.5t-249.5 54.5t-178.5 159t-67 241.5zM315 455q0 -144 84 -222.5t213 -78.5q127 0 210 78.5t83 222.5v526q0 142 -83 221.5t-210 79.5 q-129 0 -213 -79.5t-84 -221.5v-526z" />
<glyph unicode="P" horiz-adv-x="1163" d="M125 0v1434h504q207 0 326.5 -122.5t119.5 -332.5v-96q0 -208 -120 -331.5t-326 -123.5h-305v-428h-199zM324 610h305q120 0 184 76.5t64 222.5v43q0 146 -64 222.5t-184 76.5h-305v-641z" />
<glyph unicode="Q" horiz-adv-x="1216" d="M115 426v582q0 138 67 242.5t178.5 158t249.5 53.5t250 -53.5t179 -158t67 -242.5v-582q0 -175 -109 -297l129 -145l-131 -113l-135 158q-113 -58 -250 -58q-138 0 -249.5 54.5t-178.5 159t-67 241.5zM315 455q0 -144 84 -222.5t213 -78.5q61 0 119 22l-121 139l129 111 l121 -137q45 67 45 166v526q0 142 -83 221.5t-210 79.5q-129 0 -213 -79.5t-84 -221.5v-526z" />
<glyph unicode="R" horiz-adv-x="1163" d="M125 0v1434h504q203 0 325.5 -113t122.5 -287v-73q0 -135 -79 -237t-216 -140l320 -578l-213 -26l-316 581h-249v-561h-199zM324 741h305q117 0 182.5 68t65.5 176v23q0 110 -65 176.5t-183 66.5h-305v-510z" />
<glyph unicode="S" horiz-adv-x="1103" d="M70 266l190 60q33 -73 109 -121.5t178 -48.5q139 0 211.5 59.5t72.5 165.5v18q0 205 -282 232q-451 48 -451 391v43q0 182 110.5 288.5t336.5 106.5q181 0 292.5 -77t153.5 -209l-192 -56q-57 160 -254 160q-126 0 -188 -59.5t-62 -157.5v-17q0 -48 14 -84.5t37.5 -60 t61.5 -40t77 -25t93 -15.5q60 -7 110 -18.5t104 -31t95 -49.5t74 -70t51 -97t18 -127v-53q0 -188 -123.5 -295t-357.5 -107q-183 0 -310.5 82.5t-168.5 212.5z" />
<glyph unicode="T" horiz-adv-x="993" d="M18 1253v181h961v-181h-381v-1253h-199v1253h-381z" />
<glyph unicode="U" horiz-adv-x="1187" d="M121 397v1030l198 27v-1030q0 -146 58 -211.5t184 -65.5q100 0 180.5 44.5t126.5 109.5v1133h201v-1059q0 -116 11 -184.5t44 -143.5l-178 -67q-26 39 -51 145q-62 -64 -159 -109t-199 -45q-416 0 -416 426z" />
<glyph unicode="V" horiz-adv-x="1150" d="M12 1427l213 27l355 -1214l346 1194h217l-469 -1434h-191z" />
<glyph unicode="W" horiz-adv-x="1804" d="M12 1427l209 27l303 -1210l277 1190h207l280 -1190l293 1190h213l-410 -1434h-204l-279 1165l-274 -1165h-205z" />
<glyph unicode="X" horiz-adv-x="1112" d="M8 0l418 723l-408 704l236 27l299 -588l297 568h248l-412 -707l420 -727h-250l-299 582l-299 -582h-250z" />
<glyph unicode="Y" horiz-adv-x="1087" d="M12 1427l224 27l311 -762l301 742h231l-434 -945v-489h-199v485z" />
<glyph unicode="Z" horiz-adv-x="1077" d="M63 0v184l687 1069h-664v181h899v-187l-682 -1067h713v-180h-953z" />
<glyph unicode="[" horiz-adv-x="550" d="M139 -225v1761h355v-168h-181v-1425h181v-168h-355z" />
<glyph unicode="\" horiz-adv-x="964" d="M16 1536l158 66l776 -1827l-157 -62z" />
<glyph unicode="]" horiz-adv-x="550" d="M61 -57h179v1425h-179v168h355v-1761h-355v168z" />
<glyph unicode="^" horiz-adv-x="780" d="M82 1079l225 432h168l225 -432l-151 -55l-160 342l-158 -342z" />
<glyph unicode="_" horiz-adv-x="987" d="M16 -104h957v-144h-957v144z" />
<glyph unicode="`" horiz-adv-x="575" d="M113 1509l151 90l168 -292l-102 -66z" />
<glyph unicode="a" horiz-adv-x="1046" d="M74 307q0 90 27 154t79.5 100.5t121.5 53t161 16.5h260v131q0 126 -51.5 180.5t-165.5 54.5q-91 0 -149.5 -40.5t-73.5 -108.5l-179 51q29 117 136 192.5t266 75.5q198 0 302 -95t103 -281v-433q0 -113 12 -180t44 -133l-162 -65q-37 55 -53 120q-56 -55 -138.5 -87.5 t-169.5 -32.5q-175 0 -272.5 82t-97.5 245zM266 311q0 -90 53.5 -133t145.5 -43q81 0 148 36.5t110 98.5v217h-254q-103 0 -153 -40.5t-50 -135.5z" />
<glyph unicode="b" horiz-adv-x="1101" d="M139 94v1381l191 26l-2 -463q126 129 284 129q363 0 363 -409v-355q0 -198 -111.5 -310.5t-306.5 -112.5q-253 0 -418 114zM330 193q85 -43 227 -43q229 0 229 278v305q0 134 -47 198t-157 64q-69 0 -138.5 -44.5t-113.5 -104.5v-653z" />
<glyph unicode="c" horiz-adv-x="1013" d="M127 403v340q0 198 113.5 311t310.5 113q159 0 263.5 -72.5t137.5 -199.5l-178 -51q-37 153 -223 153q-113 0 -173.5 -70.5t-60.5 -207.5v-291q0 -137 60.5 -207.5t173.5 -70.5q181 0 223 153l176 -47q-34 -126 -136 -201t-263 -75q-197 0 -310.5 112.5t-113.5 310.5z " />
<glyph unicode="d" horiz-adv-x="1101" d="M129 403v355q0 199 93 304t272 105q157 0 282 -57v365l191 26v-1143q0 -116 11 -182.5t44 -130.5l-164 -65q-35 56 -53 118q-121 -118 -297 -118q-184 0 -281.5 111.5t-97.5 311.5zM317 428q0 -141 50 -209.5t163 -68.5q166 0 246 126v666q-114 53 -254 53 q-106 0 -155.5 -65t-49.5 -197v-305z" />
<glyph unicode="e" horiz-adv-x="1093" d="M127 403v340q0 198 113.5 311t310.5 113t310.5 -113t113.5 -311v-233h-658v-90q-1 -135 59 -204t175 -69q184 0 223 156l176 -47q-33 -126 -136.5 -201t-262.5 -75q-197 0 -310.5 112.5t-113.5 310.5zM315 659h469v66q0 135 -59 204.5t-174 69.5t-175.5 -69.5 t-60.5 -204.5v-66z" />
<glyph unicode="f" horiz-adv-x="706" d="M16 821v162h123v145q-1 185 94.5 276t278.5 91q93 0 172 -27l-31 -151q-61 14 -125 14q-103 0 -151.5 -50.5t-48.5 -154.5l2 -143h305v-162h-305v-821h-191v821h-123z" />
<glyph unicode="g" horiz-adv-x="1101" d="M131 483v275q0 199 92 304t271 105q156 0 292 -61l52 41h129v-1094q0 -186 -111.5 -283.5t-302.5 -97.5q-189 0 -294.5 70t-115.5 203l179 30q12 -73 64.5 -103t166.5 -30q223 0 223 236v121q-119 -119 -282 -119q-185 0 -274 101t-89 302zM317 733l2 -225v-10 q0 -124 46 -184q48 -62 157 -62q70 0 138 36t118 93l-2 559q-113 55 -252 55q-106 0 -156.5 -65t-50.5 -197z" />
<glyph unicode="h" horiz-adv-x="1093" d="M139 0v1475l191 26l-2 -463q126 129 284 129q182 0 266.5 -96.5t84.5 -290.5v-780h-189v754q0 129 -45.5 187t-153.5 58q-69 0 -135 -41.5t-112 -101.5v-856h-189z" />
<glyph unicode="i" horiz-adv-x="464" d="M14 985v162h314v-1147h-189v985h-125zM115 1362q0 125 114 125q55 0 87 -31t32 -94q0 -61 -32 -90t-87 -29q-114 0 -114 119z" />
<glyph unicode="j" horiz-adv-x="479" d="M-80 -174q125 6 178.5 70.5t53.5 199.5v889h-125v162h315v-1073q0 -188 -102.5 -290.5t-292.5 -111.5zM131 1362q0 123 113 123q116 0 116 -123q0 -117 -116 -117q-113 0 -113 117z" />
<glyph unicode="k" horiz-adv-x="995" d="M139 0v1475l189 26v-897l413 543h238l-383 -490l410 -653l-209 -24l-322 520l-147 -187v-313h-189z" />
<glyph unicode="l" horiz-adv-x="464" d="M139 293v1182l191 26v-1143q0 -116 11 -182.5t44 -130.5l-170 -65q-41 65 -58.5 136t-17.5 177z" />
<glyph unicode="m" horiz-adv-x="1654" d="M139 0v1141l187 26v-135q118 135 274 135q94 0 160.5 -44t99.5 -124q109 168 311 168q171 0 258 -99.5t87 -295.5v-772h-187v741q0 131 -41.5 193.5t-140.5 62.5q-103 0 -163 -65.5t-60 -169.5v-762h-189v743q0 124 -45 190t-123 66q-70 0 -133 -43t-104 -108v-848h-191z " />
<glyph unicode="n" horiz-adv-x="1099" d="M139 0v1141l187 26v-135q58 60 133.5 97.5t154.5 37.5q180 0 264.5 -99.5t84.5 -295.5v-772h-189v745q0 131 -43.5 192.5t-150.5 61.5q-69 0 -137.5 -45t-112.5 -106v-848h-191z" />
<glyph unicode="o" horiz-adv-x="1097" d="M127 403v340q0 197 114 310.5t310 113.5q197 0 310.5 -113t113.5 -311v-340q0 -198 -113.5 -310.5t-310.5 -112.5q-196 0 -310 113t-114 310zM317 428q0 -137 59.5 -207.5t174.5 -70.5q113 0 173 70.5t60 207.5v291q0 137 -60 207.5t-173 70.5q-115 0 -174.5 -70.5 t-59.5 -207.5v-291z" />
<glyph unicode="p" horiz-adv-x="1101" d="M139 -307v1448l187 26v-131q58 60 132.5 95.5t153.5 35.5q363 0 363 -409v-355q0 -198 -108 -310.5t-300 -112.5q-125 0 -237 34v-295zM330 193q85 -43 227 -43q229 0 229 278v305q0 134 -47 198t-157 64q-70 0 -139 -43t-113 -102v-657z" />
<glyph unicode="q" horiz-adv-x="1101" d="M127 389v354q0 198 112 311t308 113q246 0 418 -104v-1344l-191 -26v416q-56 -59 -129.5 -94t-152.5 -35q-365 0 -365 409zM317 414q0 -134 47.5 -198t155.5 -64q69 0 138.5 44.5t115.5 104.5v655q-81 41 -227 41q-230 0 -230 -278v-305z" />
<glyph unicode="r" horiz-adv-x="663" d="M139 0v1141l187 26v-149q130 149 305 149l14 -176q-94 0 -176 -42t-139 -115v-834h-191z" />
<glyph unicode="s" horiz-adv-x="964" d="M66 246l178 51q16 -68 78.5 -113t160.5 -45q107 0 163 49t56 125v13q0 81 -59.5 116.5t-187.5 51.5q-357 45 -357 315v37q0 146 97.5 233.5t285.5 87.5q166 0 266 -75t125 -195l-174 -51q-24 162 -217 162q-100 0 -147 -46.5t-47 -123.5v-11q0 -74 56 -109.5t179 -53.5 q67 -10 115.5 -22.5t99.5 -36t82.5 -55t51.5 -81.5t20 -115v-47q-2 -144 -110 -235.5t-298 -91.5q-170 0 -278.5 72t-138.5 194z" />
<glyph unicode="t" horiz-adv-x="681" d="M27 985v162h120l41 184l142 27l2 -211h315v-162h-315l-2 -625q0 -128 33 -176.5t133 -48.5q83 0 149 17l29 -150q-38 -11 -98 -20t-99 -9q-185 0 -260.5 83.5t-75.5 281.5v647h-114z" />
<glyph unicode="u" horiz-adv-x="1079" d="M133 393v748l191 26v-751q0 -141 40.5 -205t141.5 -64q83 0 148 34t104 95v865l190 26v-809q0 -115 11.5 -181.5t44.5 -131.5l-164 -65q-32 48 -54 122q-57 -55 -138 -88.5t-167 -33.5q-348 0 -348 413z" />
<glyph unicode="v" horiz-adv-x="968" d="M12 1141l201 26l274 -940l267 920h204l-380 -1147h-187z" />
<glyph unicode="w" horiz-adv-x="1529" d="M12 1141l195 26l237 -927l215 907h207l221 -903l232 903h201l-336 -1147h-201l-221 901l-215 -901h-201z" />
<glyph unicode="x" horiz-adv-x="995" d="M8 0l363 586l-342 555l231 26l238 -446l229 426h244l-346 -557l364 -590h-244l-247 455l-246 -455h-244z" />
<glyph unicode="y" horiz-adv-x="1103" d="M137 457l2 684l189 26v-667v-10q0 -120 45 -178q47 -60 155 -60q71 0 140 37.5t110 93.5v758l191 26v-1112q0 -187 -109 -285t-299 -98t-292.5 70t-116.5 203l180 30q12 -73 65.5 -103t163.5 -30q223 0 223 236v129q-124 -127 -297 -127q-350 0 -350 377z" />
<glyph unicode="z" horiz-adv-x="919" d="M70 0v176l536 805h-524v166h754v-162l-545 -819h569v-166h-790z" />
<glyph unicode="{" horiz-adv-x="692" d="M74 565v180h59q71 0 115.5 54.5t44.5 158.5v283q0 155 70 225t210 70h31l21 -166h-19q-78 0 -104.5 -35t-26.5 -121v-268q0 -104 -37 -179.5t-108 -111.5q71 -35 108 -111.5t37 -181.5v-266q0 -86 26.5 -120.5t104.5 -34.5h19l-23 -166h-29q-140 0 -210 70.5t-70 224.5 v282q0 104 -44.5 158.5t-115.5 54.5h-59z" />
<glyph unicode="|" horiz-adv-x="444" d="M139 -348v1925h166v-1925h-166z" />
<glyph unicode="}" horiz-adv-x="692" d="M70 1370l22 166h31q139 0 209.5 -70.5t70.5 -224.5v-283q0 -104 44 -158.5t114 -54.5h60v-180h-60q-70 0 -114 -54.5t-44 -158.5v-282q0 -153 -70.5 -224t-209.5 -71h-29l-22 166h18q78 0 104.5 34.5t26.5 120.5v266q0 104 37.5 181t108.5 112q-71 36 -108.5 111.5 t-37.5 179.5v268q0 86 -26.5 121t-104.5 35h-20z" />
<glyph unicode="~" horiz-adv-x="1171" d="M109 586q16 104 88.5 172.5t185.5 68.5q66 0 145.5 -33.5t150 -66.5t116.5 -33q51 0 81.5 33t38.5 86l152 -25q-14 -112 -83.5 -179.5t-190.5 -67.5q-53 0 -112.5 21t-104 46.5t-99 46.5t-98.5 21q-53 0 -84 -33t-37 -86z" />
<glyph unicode="&#xa1;" horiz-adv-x="487" d="M141 1339q0 57 27.5 86t73.5 29q51 0 78.5 -29t27.5 -86q0 -106 -106 -106q-46 0 -73.5 26.5t-27.5 79.5zM150 0v356l18 719h154l18 -719v-356h-190z" />
<glyph unicode="&#xa2;" horiz-adv-x="1093" d="M135 592v250q0 183 98.5 294t270.5 126v172h114v-170q135 -13 222.5 -80t117.5 -174l-174 -49q-16 53 -57.5 87.5t-108.5 43.5v-752q71 10 115 47.5t58 95.5l174 -45q-28 -111 -118.5 -183t-228.5 -85v-170h-114v170q-171 15 -270 127t-99 295zM322 614q0 -243 182 -274 v752q-89 -13 -135.5 -83.5t-46.5 -189.5v-205z" />
<glyph unicode="&#xa3;" horiz-adv-x="1116" d="M72 0v152q72 44 114.5 121t42.5 169v179h-157v174h157v217q0 212 102 331t304 119q163 0 257.5 -73.5t123.5 -204.5l-185 -54q-29 154 -196 154q-114 0 -160.5 -72.5t-46.5 -224.5v-192h279v-174h-279v-148q0 -55 -10.5 -106t-25.5 -83.5t-30 -57.5t-26 -36l-10 -12h723 v-178h-977z" />
<glyph unicode="&#xa4;" horiz-adv-x="1179" d="M100 309l138 146q-43 88 -43 200v90q0 109 43 197l-138 148l121 127l135 -142q91 66 236 66q141 0 235 -66l136 142l120 -127l-141 -148q43 -82 43 -197v-90q0 -112 -43 -200l141 -146l-120 -127l-136 142q-94 -66 -235 -66q-146 0 -240 66l-131 -142zM362 674 q0 -125 61 -190.5t169 -65.5q106 0 166.5 65.5t60.5 190.5v51q0 126 -60 192t-167 66q-108 0 -169 -65.5t-61 -192.5v-51z" />
<glyph unicode="&#xa5;" horiz-adv-x="1089" d="M18 1427l211 27l322 -645l311 625h215l-399 -768h338v-162h-367v-150h367v-161h-367v-193h-198v193h-369v161h369v150h-369v162h336z" />
<glyph unicode="&#xa6;" horiz-adv-x="444" d="M139 -348v708h166v-708h-166zM139 866v711h166v-711h-166z" />
<glyph unicode="&#xa7;" horiz-adv-x="1038" d="M104 631v22q0 69 41 139t105 111q-119 80 -119 219v27q0 141 95.5 227t279.5 86q153 0 244 -72t116 -186l-174 -49q-21 143 -186 143q-97 0 -138.5 -40t-41.5 -113v-19q0 -36 18 -63.5t53 -46.5t73.5 -31.5t92.5 -23.5q59 -12 105.5 -26t99 -39.5t87.5 -58t58 -83 t23 -113.5v-27q0 -64 -48.5 -134t-111.5 -111q133 -80 133 -224v-28q0 -139 -102.5 -229.5t-286.5 -90.5q-156 0 -259.5 71.5t-135.5 188.5l178 52q16 -66 70.5 -107t146.5 -41q100 0 148.5 45t48.5 119v16q0 63 -60.5 99t-171.5 59q-62 12 -111.5 27.5t-102 42t-87.5 60.5 t-57.5 86t-22.5 116zM299 645q0 -30 8.5 -54t29.5 -43t44 -33t64 -27.5t77 -22.5t96 -23q51 30 87 78.5t36 91.5v13q0 45 -23.5 77.5t-66 51t-82.5 29.5t-92 21.5t-76 18.5q-43 -24 -72.5 -69.5t-29.5 -96.5v-12z" />
<glyph unicode="&#xa8;" horiz-adv-x="833" d="M88 1374q0 62 27 94.5t78 32.5q54 0 82 -32.5t28 -94.5q0 -59 -28 -91t-82 -32q-51 0 -78 32t-27 91zM532 1374q0 61 28 94t79 33q54 0 82.5 -32.5t28.5 -94.5q0 -59 -28.5 -91t-82.5 -32q-51 0 -79 32t-28 91z" />
<glyph unicode="&#xa9;" horiz-adv-x="1398" d="M115 420v588q0 136 82.5 239t214 155t288.5 52t288.5 -52t213.5 -155t82 -239v-588q0 -103 -47.5 -189t-128.5 -142t-186.5 -87t-221.5 -31t-221.5 31t-186.5 87t-129 142t-48 189zM260 428q0 -100 66 -173t163.5 -106.5t210.5 -33.5q84 0 161.5 20t140.5 57.5t101 98.5 t38 137v571q0 74 -38 134.5t-101 98.5t-140.5 58.5t-161.5 20.5q-83 0 -160.5 -20.5t-140.5 -58.5t-101 -98.5t-38 -134.5v-571zM414 565v299q0 128 79 205.5t209 77.5q127 0 205 -69t78 -175l-141 -22q0 58 -39 90.5t-103 32.5q-65 0 -104 -39.5t-39 -112.5v-277 q0 -73 38.5 -112t104.5 -39q65 0 103.5 32.5t38.5 90.5l141 -15q0 -109 -78 -180t-205 -71q-130 0 -209 77t-79 207z" />
<glyph unicode="&#xaa;" horiz-adv-x="808" d="M125 795q0 129 82 189t227 60h189v82q0 97 -38.5 146t-121.5 49q-63 0 -104.5 -27.5t-55.5 -72.5l-137 55q29 80 107.5 131t191.5 51q152 0 231.5 -81t79.5 -232v-408q0 -95 41 -155l-135 -56q-36 36 -51 95q-102 -89 -234 -89t-202 67t-70 196zM276 797q0 -61 37.5 -94 t100.5 -33q61 0 118 29t91 71v148h-199q-73 0 -110.5 -32t-37.5 -89z" />
<glyph unicode="&#xab;" horiz-adv-x="858" d="M61 512v121l291 305l90 -117l-229 -250l229 -247l-90 -117zM414 512v121l291 305l92 -117l-232 -250l232 -247l-92 -117z" />
<glyph unicode="&#xac;" horiz-adv-x="1286" d="M119 727v178h1050v-489h-182v311h-868z" />
<glyph unicode="&#xad;" horiz-adv-x="776" d="M119 530v177h573v-177h-573z" />
<glyph unicode="&#xae;" horiz-adv-x="1398" d="M115 420v588q0 136 82.5 239t214 155t288.5 52t288.5 -52t213.5 -155t82 -239v-588q0 -103 -47.5 -189t-128.5 -142t-186.5 -87t-221.5 -31t-221.5 31t-186.5 87t-129 142t-48 189zM260 428q0 -100 66 -173t163.5 -106.5t210.5 -33.5q84 0 161.5 20t140.5 57.5t101 98.5 t38 137v571q0 74 -38 134.5t-101 98.5t-140.5 58.5t-161.5 20.5q-83 0 -160.5 -20.5t-140.5 -58.5t-101 -98.5t-38 -134.5v-571zM420 297v833h307q129 0 201.5 -63t72.5 -184v-49q0 -85 -40.5 -145t-112.5 -85l184 -299l-178 -14l-168 295h-119v-289h-147zM567 715h148 q70 0 104.5 31.5t34.5 101.5v18q0 71 -34.5 101t-104.5 30h-148v-282z" />
<glyph unicode="&#xaf;" horiz-adv-x="776" d="M102 1276v176h574v-176h-574z" />
<glyph unicode="&#xb0;" horiz-adv-x="706" d="M92 1165v33q0 120 70.5 193t187.5 73q122 0 194 -72.5t72 -193.5v-33q0 -126 -71 -196t-195 -70q-119 0 -188.5 70t-69.5 196zM223 1178q0 -75 31.5 -116.5t93.5 -41.5q139 0 139 158q0 159 -139 159q-125 0 -125 -159z" />
<glyph unicode="&#xb1;" horiz-adv-x="1181" d="M119 63v168h946v-168h-946zM119 655v170h387v322h170v-322h389v-170h-389v-321h-170v321h-387z" />
<glyph unicode="&#xb2;" horiz-adv-x="837" d="M106 489v101l375 424q84 100 84 172q0 57 -36.5 94t-106.5 37q-68 0 -105.5 -42.5t-44.5 -103.5l-147 43q16 104 93 173t204 69q146 0 222.5 -74t76.5 -194q0 -130 -143 -289l-238 -270h395v-140h-629z" />
<glyph unicode="&#xb3;" horiz-adv-x="823" d="M111 709l149 49q5 -63 40.5 -104.5t102.5 -41.5q74 0 114 38t40 106v24q0 70 -25.5 111t-68.5 41h-148v123h146q41 0 64.5 45t23.5 90q0 55 -36 93t-101 38q-67 0 -101 -39t-41 -100l-145 43q16 101 90 166t197 65q140 0 214 -72.5t74 -189.5q0 -53 -22 -106t-60 -89 q43 -28 72 -87t29 -119v-39q0 -128 -84 -205.5t-232 -77.5q-126 0 -201 67.5t-91 170.5z" />
<glyph unicode="&#xb4;" horiz-adv-x="575" d="M133 1307l168 292l150 -90l-215 -268z" />
<glyph unicode="&#xb5;" horiz-adv-x="1103" d="M123 -281q4 10 10 29t16.5 85t10.5 140v1168l190 26l-2 -739q0 -278 219 -278q104 0 160.5 71t56.5 207v713l191 26l-2 -764q0 -197 -106 -310t-287 -113q-147 0 -232 106v-115q0 -75 -9 -144.5t-19 -101.5l-9 -32z" />
<glyph unicode="&#xb6;" horiz-adv-x="1148" d="M133 967v55q0 199 110 305.5t316 106.5h453v-1659h-127v1509h-150v-1509h-129v780h-63q-192 0 -301 107t-109 305z" />
<glyph unicode="&#xb7;" horiz-adv-x="397" d="M86 641q0 64 30 96.5t83 32.5q54 0 85 -32.5t31 -96.5q0 -60 -31 -90.5t-85 -30.5q-53 0 -83 30.5t-30 90.5z" />
<glyph unicode="&#xb8;" horiz-adv-x="526" d="M102 -317l13 81q30 -10 65 -10q37 0 59.5 14.5t22.5 41.5q0 30 -30 45t-60 15l-29 -1l52 131h135l-25 -72q54 -8 88.5 -39t34.5 -86q0 -52 -33.5 -85t-77 -43.5t-96.5 -10.5q-67 0 -119 19z" />
<glyph unicode="&#xb9;" horiz-adv-x="483" d="M18 1272l240 170h123v-944h-154v751l-135 -90z" />
<glyph unicode="&#xba;" horiz-adv-x="813" d="M104 911v242q0 140 82.5 222.5t221.5 82.5q141 0 222 -82t81 -223v-242q0 -139 -81.5 -220t-221.5 -81q-138 0 -221 81.5t-83 219.5zM250 930q0 -93 40.5 -142t117.5 -49q78 0 119.5 49t41.5 142v207q0 95 -41.5 143.5t-119.5 48.5q-77 0 -117.5 -48.5t-40.5 -143.5v-207 z" />
<glyph unicode="&#xbb;" horiz-adv-x="860" d="M61 324l232 247l-232 250l93 117l290 -305v-121l-290 -305zM416 324l231 247l-231 250l92 117l291 -305v-121l-291 -305z" />
<glyph unicode="&#xbc;" horiz-adv-x="1607" d="M55 1272l238 170h123v-944h-154v751l-133 -90zM209 0l971 1524l141 -90l-979 -1528zM797 178v96l325 697l148 -25l-283 -631h264v324l154 27v-351h86v-137h-86v-178h-154v178h-454z" />
<glyph unicode="&#xbd;" horiz-adv-x="1708" d="M55 1272l238 170h123v-944h-154v751l-133 -90zM188 0l973 1524l142 -90l-979 -1528zM956 0v100l375 424q86 96 86 170q0 57 -37 94t-106 37q-70 0 -107.5 -41t-44.5 -102l-147 41q16 105 93.5 174.5t205.5 69.5q145 0 222 -74.5t77 -196.5q0 -131 -143 -286l-238 -271 h393v-139h-629z" />
<glyph unicode="&#xbe;" horiz-adv-x="1822" d="M127 709l149 49q5 -63 41 -104.5t105 -41.5q73 0 112 38t39 106v24q0 70 -25.5 111t-68.5 41h-147v123h145q29 0 50 24.5t29.5 53.5t8.5 57q0 55 -35 93t-102 38q-66 0 -100 -39.5t-41 -99.5l-146 43q16 101 90 166t197 65q140 0 214.5 -72.5t74.5 -189.5 q0 -54 -21.5 -106.5t-60.5 -88.5q43 -28 71.5 -87t28.5 -119v-39q0 -128 -83 -205.5t-230 -77.5q-126 0 -201 67t-94 171zM422 0l971 1524l143 -90l-979 -1528zM1012 178v96l323 697l150 -25l-285 -631h266l-2 324l156 27v-351h84v-137h-84v-178h-154v178h-454z" />
<glyph unicode="&#xbf;" horiz-adv-x="1005" d="M104 315v33q0 122 47 205t142 176q92 92 127 150.5t35 142.5v70h192v-74q0 -33 -3 -62.5t-6.5 -53t-12.5 -48t-15.5 -41t-21.5 -38t-24 -34t-29 -34.5t-31 -33l-36 -36l-38 -38q-64 -66 -93.5 -125.5t-29.5 -138.5v-17q0 -79 51.5 -126.5t157.5 -47.5q95 0 148.5 41.5 t68.5 108.5l182 -51q-33 -124 -134 -198.5t-265 -74.5q-196 0 -304 96.5t-108 247.5zM438 1343q0 56 31.5 86.5t81.5 30.5q48 0 78 -30.5t30 -86.5q0 -55 -30 -84.5t-78 -29.5q-51 0 -82 29.5t-31 84.5z" />
<glyph unicode="&#xc0;" d="M10 0l490 1434h190l492 -1428l-211 -26l-131 419h-490l-121 -399h-219zM354 1790l152 90l170 -293l-105 -65zM403 575h383l-192 621z" />
<glyph unicode="&#xc1;" d="M10 0l490 1434h190l492 -1428l-211 -26l-131 419h-490l-121 -399h-219zM403 575h383l-192 621zM526 1593l168 293l152 -90l-215 -268z" />
<glyph unicode="&#xc2;" d="M10 0l490 1434h190l492 -1428l-211 -26l-131 419h-490l-121 -399h-219zM375 1593l141 211h158l143 -211l-139 -45l-84 148l-82 -148zM403 575h383l-192 621z" />
<glyph unicode="&#xc3;" d="M10 0l490 1434h190l492 -1428l-211 -26l-131 419h-490l-121 -399h-219zM250 1604q8 86 59 143t135 57q49 0 107.5 -22.5t106.5 -45t71 -22.5q67 0 74 76l137 -31q-8 -90 -57 -145t-138 -55q-55 0 -151.5 44t-132.5 44q-34 0 -52 -20.5t-18 -55.5zM403 575h383l-192 621z " />
<glyph unicode="&#xc4;" d="M10 0l490 1434h190l492 -1428l-211 -26l-131 419h-490l-121 -399h-219zM262 1659q0 62 27 95.5t78 33.5q54 0 83 -33.5t29 -95.5q0 -57 -29 -89t-83 -32q-51 0 -78 32t-27 89zM403 575h383l-192 621zM711 1659q0 62 26.5 95.5t77.5 33.5q54 0 82.5 -33.5t28.5 -95.5 q0 -57 -28.5 -89t-82.5 -32q-51 0 -77.5 31.5t-26.5 89.5z" />
<glyph unicode="&#xc5;" d="M10 0l490 1434h190l492 -1428l-211 -26l-131 419h-490l-121 -399h-219zM403 575h383l-192 621zM438 1683v21q0 70 43 112t111 42q72 0 116 -42t44 -112v-21q0 -73 -43.5 -114t-116.5 -41q-69 0 -111.5 41.5t-42.5 113.5zM526 1692q0 -38 17 -60t49 -22q36 0 55 22t19 60 q0 82 -74 82q-66 0 -66 -82z" />
<glyph unicode="&#xc6;" horiz-adv-x="1857" d="M4 0l746 1434h1022v-183h-613v-534h510v-180h-510v-357h627v-180h-825v481h-478l-237 -481h-242zM569 664h392v589h-103z" />
<glyph unicode="&#xc7;" horiz-adv-x="1148" d="M115 426v582q0 206 133 330t342 124q173 0 292 -78t156 -213l-188 -51q-28 75 -95.5 117.5t-164.5 42.5q-125 0 -200 -78.5t-75 -220.5v-526q0 -143 74.5 -222t200.5 -79q97 0 164.5 42t95.5 117l188 -51q-34 -120 -132 -196t-244 -91l-17 -47q54 -8 87.5 -39t33.5 -86 q0 -40 -18.5 -68.5t-49.5 -43t-64.5 -21t-72.5 -6.5q-67 0 -119 19l13 81q30 -10 65 -10q37 0 59.5 14.5t22.5 41.5q0 30 -30 45t-60 15l-29 -1l41 106q-183 19 -296 141t-113 310z" />
<glyph unicode="&#xc8;" horiz-adv-x="1019" d="M127 0v1434h811v-183h-614v-430h512v-180h-512v-461h628v-180h-825zM342 1780l150 90l170 -293l-103 -66z" />
<glyph unicode="&#xc9;" horiz-adv-x="1019" d="M127 0v1434h811v-183h-614v-432h512v-178h-512v-461h628v-180h-825zM463 1595l168 293l151 -92l-217 -268z" />
<glyph unicode="&#xca;" horiz-adv-x="1019" d="M127 0v1434h811v-183h-614v-430h512v-180h-512v-461h628v-180h-825zM324 1593l141 211h158l143 -211l-139 -45l-84 148l-82 -148z" />
<glyph unicode="&#xcb;" horiz-adv-x="1019" d="M125 0v1434h813v-183h-614v-430h512v-180h-512v-461h628v-180h-827zM197 1661q0 62 26.5 94.5t77.5 32.5q54 0 82.5 -32.5t28.5 -94.5q0 -59 -28.5 -91t-82.5 -32q-51 0 -77.5 32t-26.5 91zM641 1661q0 61 28 94t79 33q52 0 80 -32.5t28 -94.5q0 -59 -28 -91t-80 -32 q-51 0 -79 32t-28 91z" />
<glyph unicode="&#xcc;" horiz-adv-x="446" d="M10 1784l152 90l168 -293l-103 -65zM127 0v1434h197v-1434h-197z" />
<glyph unicode="&#xcd;" horiz-adv-x="446" d="M127 0v1434h197v-1434h-197zM139 1575l170 293l150 -92l-217 -269z" />
<glyph unicode="&#xce;" horiz-adv-x="446" d="M4 1593l141 211h158l143 -211l-137 -45l-86 148l-82 -148zM127 0v1434h197v-1434h-197z" />
<glyph unicode="&#xcf;" horiz-adv-x="446" d="M-29 1661q0 62 27 94.5t78 32.5q108 0 108 -127q0 -59 -27.5 -91t-80.5 -32q-51 0 -78 32t-27 91zM125 0v1434h199v-1434h-199zM268 1661q0 127 103 127q108 0 108 -127q0 -59 -27.5 -91t-80.5 -32q-51 0 -77 32t-26 91z" />
<glyph unicode="&#xd0;" horiz-adv-x="1191" d="M18 639v174h107v621h504q207 0 327.5 -123t120.5 -332v-524q0 -209 -120.5 -332t-327.5 -123h-504v639h-107zM324 180h305q121 0 184.5 77t63.5 224v471q0 146 -63.5 222.5t-184.5 76.5h-305v-438h303v-174h-303v-459z" />
<glyph unicode="&#xd1;" horiz-adv-x="1232" d="M127 0v1434h213l578 -1078l-5 1078h197v-1434h-217l-578 1073l7 -1073h-195zM272 1604q6 85 58 142.5t135 57.5q50 0 108.5 -22.5t106.5 -45t70 -22.5q66 0 73 76l138 -31q-6 -90 -55.5 -145t-139.5 -55q-56 0 -152 44t-131 44q-68 0 -71 -76z" />
<glyph unicode="&#xd2;" horiz-adv-x="1216" d="M117 426v582q0 138 66.5 242.5t178 158t250.5 53.5q137 0 248.5 -53.5t178.5 -158t67 -242.5v-582q0 -205 -142 -330t-352 -125q-212 0 -353.5 124.5t-141.5 330.5zM315 455q0 -143 83.5 -222t213.5 -79q127 0 210 79.5t83 221.5v526q0 142 -83 220.5t-210 78.5 q-130 0 -213.5 -78t-83.5 -221v-526zM393 1790l150 90l170 -293l-105 -65z" />
<glyph unicode="&#xd3;" horiz-adv-x="1216" d="M117 426v582q0 138 66.5 242.5t178 158t250.5 53.5q137 0 248.5 -53.5t178.5 -158t67 -242.5v-582q0 -205 -142 -330t-352 -125q-212 0 -353.5 124.5t-141.5 330.5zM315 455q0 -143 83.5 -222t213.5 -79q127 0 210 79.5t83 221.5v526q0 142 -83 220.5t-210 78.5 q-130 0 -213.5 -78t-83.5 -221v-526zM561 1589l168 291l150 -88l-215 -270z" />
<glyph unicode="&#xd4;" horiz-adv-x="1216" d="M117 426v582q0 138 66.5 242.5t178 158t250.5 53.5q137 0 248.5 -53.5t178.5 -158t67 -242.5v-582q0 -205 -142 -330t-352 -125q-212 0 -353.5 124.5t-141.5 330.5zM315 455q0 -143 83.5 -222t213.5 -79q127 0 210 79.5t83 221.5v526q0 142 -83 220.5t-210 78.5 q-130 0 -213.5 -78t-83.5 -221v-526zM391 1593l141 211h156l146 -211l-140 -45l-84 148l-82 -148z" />
<glyph unicode="&#xd5;" horiz-adv-x="1216" d="M117 426v582q0 138 66.5 242.5t178 158t250.5 53.5q137 0 248.5 -53.5t178.5 -158t67 -242.5v-582q0 -205 -142 -330t-352 -125q-212 0 -353.5 124.5t-141.5 330.5zM266 1604q8 87 60 143.5t135 56.5q50 0 108.5 -22.5t106 -45t69.5 -22.5q67 0 74 78l137 -33 q-6 -89 -55 -144.5t-137 -55.5q-56 0 -153 45t-134 45q-66 0 -69 -78zM315 455q0 -143 83.5 -222t213.5 -79q127 0 210 79.5t83 221.5v526q0 142 -83 220.5t-210 78.5q-130 0 -213.5 -78t-83.5 -221v-526z" />
<glyph unicode="&#xd6;" horiz-adv-x="1232" d="M123 426v582q0 138 66.5 242.5t178 158t250.5 53.5q137 0 248.5 -53.5t178.5 -158t67 -242.5v-582q0 -205 -142 -330t-352 -125q-212 0 -353.5 124.5t-141.5 330.5zM287 1661q0 61 27 94t77 33q54 0 83.5 -33t29.5 -94q0 -59 -29.5 -91t-83.5 -32q-49 0 -76.5 32 t-27.5 91zM322 455q0 -144 83.5 -222.5t212.5 -78.5t212 78.5t83 222.5v526q0 142 -83 220.5t-212 78.5t-212.5 -78.5t-83.5 -220.5v-526zM733 1661q0 62 27 94.5t78 32.5q54 0 82 -32.5t28 -94.5q0 -59 -28 -91t-82 -32q-51 0 -78 32t-27 91z" />
<glyph unicode="&#xd7;" horiz-adv-x="1097" d="M86 201l348 366l-348 367l115 121l348 -367l350 367l113 -121l-348 -367l348 -366l-113 -121l-350 366l-348 -366z" />
<glyph unicode="&#xd8;" horiz-adv-x="1216" d="M6 324l109 90v592q0 138 67 243t178.5 159t249.5 54q150 0 268 -66t175 -184l65 54l94 -158l-106 -92v-588q0 -138 -67 -243t-179 -159.5t-250 -54.5q-150 0 -267.5 65t-174.5 183l-66 -55zM315 586l578 489q-27 99 -103 152t-180 53q-128 0 -211.5 -79t-83.5 -222v-393z M328 356q26 -97 102.5 -149.5t179.5 -52.5q128 0 211.5 79t83.5 222v393z" />
<glyph unicode="&#xd9;" horiz-adv-x="1187" d="M121 397v1030l201 27v-1030q0 -146 56.5 -211.5t182.5 -65.5q101 0 181.5 44t125.5 110v1133h199v-1059q0 -115 11.5 -183.5t43.5 -144.5l-176 -67q-23 37 -53 145q-61 -64 -157.5 -109t-198.5 -45q-416 0 -416 426zM340 1796l149 90l170 -293l-102 -65z" />
<glyph unicode="&#xda;" horiz-adv-x="1187" d="M121 397v1030l201 27v-1030q0 -146 56.5 -211.5t182.5 -65.5q101 0 181.5 44t125.5 110v1133h199v-1059q0 -115 11.5 -183.5t43.5 -144.5l-176 -67q-23 37 -53 145q-61 -64 -157.5 -109t-198.5 -45q-416 0 -416 426zM530 1593l170 293l150 -90l-217 -268z" />
<glyph unicode="&#xdb;" horiz-adv-x="1187" d="M121 397v1030l201 27v-1030q0 -146 56.5 -211.5t182.5 -65.5q101 0 181.5 44t125.5 110v1133h199v-1059q0 -115 11.5 -183.5t43.5 -144.5l-176 -67q-23 37 -53 145q-61 -64 -157.5 -109t-198.5 -45q-416 0 -416 426zM379 1593l143 211h158l143 -211l-139 -45l-84 148 l-82 -148z" />
<glyph unicode="&#xdc;" horiz-adv-x="1187" d="M121 397v1030l201 27v-1030q0 -146 56.5 -211.5t182.5 -65.5q101 0 181.5 44t125.5 110v1133h199v-1059q0 -115 11.5 -183.5t43.5 -144.5l-176 -67q-23 37 -53 145q-61 -64 -157.5 -109t-198.5 -45q-416 0 -416 426zM279 1659q0 129 102 129q55 0 84 -33.5t29 -95.5 q0 -58 -29 -89.5t-84 -31.5q-50 0 -76 31.5t-26 89.5zM723 1659q0 62 26.5 95.5t77.5 33.5q54 0 82.5 -33.5t28.5 -95.5q0 -57 -28.5 -89t-82.5 -32q-51 0 -77.5 31.5t-26.5 89.5z" />
<glyph unicode="&#xdd;" horiz-adv-x="1087" d="M12 1427l224 27l311 -762l301 742h231l-434 -945v-489h-199v485zM461 1593l168 293l151 -90l-215 -268z" />
<glyph unicode="&#xde;" horiz-adv-x="1150" d="M125 0v1434h199v-256h282q209 0 329 -112t120 -316v-66q0 -204 -120 -316t-329 -112h-282v-256h-199zM324 436h282q248 0 248 271v20q0 138 -62.5 203t-185.5 65h-282v-559z" />
<glyph unicode="&#xdf;" horiz-adv-x="1144" d="M16 768v168h123v197q0 200 99.5 311.5t283.5 111.5q168 0 261 -79t94 -230q0 -60 -24.5 -111.5t-59 -87t-69 -67.5t-59 -68t-24.5 -73q0 -42 22 -78.5t58 -65.5t78.5 -58.5t85.5 -63.5t79 -72.5t58 -94t22 -120.5q0 -142 -95 -229t-283 -87q-102 0 -191 29l31 164 q77 -23 151 -23q81 0 136 38t55 108q0 40 -21.5 76.5t-56.5 65.5t-76.5 58t-83.5 62.5t-77 71t-56.5 91t-21.5 115.5q0 56 16.5 102t41.5 74t54.5 56.5t54.5 52t41.5 58.5t16.5 77q0 142 -160 142q-99 0 -144.5 -69.5t-45.5 -209.5v-1110h-191v768h-123z" />
<glyph unicode="&#xe0;" horiz-adv-x="1064" d="M92 307q0 91 27 155t79.5 100.5t121 52.5t159.5 16h262v131q0 126 -51.5 180.5t-165.5 54.5q-92 0 -150.5 -40.5t-72.5 -106.5l-178 51q29 115 136 190.5t265 75.5q198 0 302.5 -95t103.5 -281v-433q0 -114 11.5 -181t43.5 -132l-164 -65q-36 58 -51 120 q-56 -55 -138 -87.5t-169 -32.5q-176 0 -273.5 82t-97.5 245zM285 311q-1 -90 52 -133t146 -43q81 0 149 36.5t109 98.5v217h-254q-104 0 -153 -40t-49 -136zM307 1509l150 90l170 -292l-103 -66z" />
<glyph unicode="&#xe1;" horiz-adv-x="1064" d="M92 307q0 91 27 155t79.5 100.5t121 52.5t159.5 16h262v131q0 126 -51.5 180.5t-165.5 54.5q-92 0 -150.5 -40.5t-72.5 -106.5l-178 51q29 115 136 190.5t265 75.5q198 0 302.5 -95t103.5 -281v-433q0 -114 11.5 -181t43.5 -132l-164 -65q-36 58 -51 120 q-56 -55 -138 -87.5t-169 -32.5q-176 0 -273.5 82t-97.5 245zM285 311q-1 -90 52 -133t146 -43q81 0 149 36.5t109 98.5v217h-254q-104 0 -153 -40t-49 -136zM440 1307l168 292l150 -90l-215 -268z" />
<glyph unicode="&#xe2;" horiz-adv-x="1064" d="M92 307q0 91 27 155t79.5 100.5t121 52.5t159.5 16h262v131q0 126 -51.5 180.5t-165.5 54.5q-92 0 -150.5 -40.5t-72.5 -106.5l-178 51q29 115 136 190.5t265 75.5q198 0 302.5 -95t103.5 -281v-433q0 -114 11.5 -181t43.5 -132l-164 -65q-36 58 -51 120 q-56 -55 -138 -87.5t-169 -32.5q-176 0 -273.5 82t-97.5 245zM285 311q-1 -90 52 -133t146 -43q81 0 149 36.5t109 98.5v217h-254q-104 0 -153 -40t-49 -136zM303 1307l143 211h158l144 -211l-140 -45l-84 147l-82 -147z" />
<glyph unicode="&#xe3;" horiz-adv-x="1064" d="M92 307q0 91 27 155t79.5 100.5t121 52.5t159.5 16h262v131q0 126 -51.5 180.5t-165.5 54.5q-92 0 -150.5 -40.5t-72.5 -106.5l-178 51q29 115 136 190.5t265 75.5q198 0 302.5 -95t103.5 -281v-433q0 -114 11.5 -181t43.5 -132l-164 -65q-36 58 -51 120 q-56 -55 -138 -87.5t-169 -32.5q-176 0 -273.5 82t-97.5 245zM174 1317q8 86 60 143.5t135 57.5q49 0 107 -23t106 -45.5t71 -22.5q67 0 74 76l137 -30q-8 -90 -56.5 -145.5t-137.5 -55.5q-57 0 -153 44t-130 44q-67 0 -74 -76zM285 311q-1 -90 52 -133t146 -43 q81 0 149 36.5t109 98.5v217h-254q-104 0 -153 -40t-49 -136z" />
<glyph unicode="&#xe4;" horiz-adv-x="1079" d="M92 307q0 91 27 155t79.5 100.5t121 52.5t159.5 16h262v131q0 126 -51.5 180.5t-165.5 54.5q-92 0 -150.5 -40.5t-72.5 -106.5l-178 51q29 115 136 190.5t265 75.5q198 0 302.5 -95t103.5 -281v-433q0 -114 11.5 -181t43.5 -132l-164 -65q-36 58 -51 120 q-56 -55 -138 -87.5t-169 -32.5q-176 0 -273.5 82t-97.5 245zM207 1372q0 62 27.5 95.5t78.5 33.5q54 0 82.5 -33.5t28.5 -95.5q0 -57 -28.5 -89t-82.5 -32q-50 0 -77 31.5t-29 89.5zM285 311q-1 -90 52 -133t146 -43q81 0 149 36.5t109 98.5v217h-254q-104 0 -153 -40 t-49 -136zM633 1372q0 62 26.5 95.5t77.5 33.5q54 0 82.5 -33.5t28.5 -95.5q0 -57 -28.5 -89t-82.5 -32q-51 0 -77.5 31.5t-26.5 89.5z" />
<glyph unicode="&#xe5;" horiz-adv-x="1079" d="M92 307q0 91 27 155t79.5 100.5t121 52.5t159.5 16h262v131q0 126 -51.5 180.5t-165.5 54.5q-92 0 -150.5 -40.5t-72.5 -106.5l-178 51q29 115 136 190.5t265 75.5q198 0 302.5 -95t103.5 -281v-433q0 -114 11.5 -181t43.5 -132l-164 -65q-36 58 -51 120 q-56 -55 -138 -87.5t-169 -32.5q-176 0 -273.5 82t-97.5 245zM285 311q-1 -90 52 -133t146 -43q81 0 149 36.5t109 98.5v217h-254q-104 0 -153 -40t-49 -136zM389 1397v20q0 70 43 112t111 42q74 0 118 -42t44 -112v-20q0 -73 -44 -114.5t-118 -41.5q-69 0 -111.5 42 t-42.5 114zM477 1405q0 -38 17 -60t49 -22q71 0 71 82t-71 82q-66 0 -66 -82z" />
<glyph unicode="&#xe6;" horiz-adv-x="1726" d="M106 324q0 166 94 247.5t271 81.5h287v95q0 249 -217 249q-90 0 -148.5 -40.5t-73.5 -108.5l-178 51q31 118 136.5 193t263.5 75q216 0 319 -147q51 71 134 109t188 38q196 0 309 -113.5t113 -310.5v-233h-658v-88q0 -134 61 -204.5t175 -70.5q183 0 225 156l176 -47 q-33 -126 -136.5 -201t-264.5 -75q-246 0 -351 167q-151 -167 -391 -167q-158 0 -246 92.5t-88 251.5zM301 332q0 -89 48 -139t132 -50t158 39.5t119 98.5v227h-271q-186 0 -186 -176zM946 653h469v72q0 135 -59.5 204.5t-173.5 69.5t-175 -67.5t-61 -196.5v-82z" />
<glyph unicode="&#xe7;" horiz-adv-x="1071" d="M127 403v340q0 198 113.5 311t310.5 113q159 0 263.5 -72.5t137.5 -199.5l-178 -51q-37 153 -223 153q-113 0 -173.5 -70.5t-60.5 -207.5v-291q0 -137 60.5 -207.5t173.5 -70.5q181 0 223 153l176 -47q-29 -110 -112.5 -182.5t-214.5 -87.5l-19 -58q54 -7 88.5 -38 t34.5 -87q0 -52 -33.5 -85t-77 -43.5t-96.5 -10.5q-68 0 -121 17l15 81q36 -8 61 -8q38 0 62 14.5t24 41.5q0 30 -29.5 45t-59.5 15l-30 -1l45 115q-170 19 -265 128.5t-95 290.5z" />
<glyph unicode="&#xe8;" horiz-adv-x="1093" d="M127 403v340q0 197 114 310.5t310 113.5q197 0 310.5 -113t113.5 -311v-235h-658v-88q0 -135 60 -204t174 -69q183 0 225 156l174 -49q-34 -125 -136.5 -199.5t-262.5 -74.5q-196 0 -310 113t-114 310zM309 1509l152 90l170 -292l-105 -66zM315 659h469v66 q0 135 -59 204.5t-174 69.5q-114 0 -175 -69.5t-61 -204.5v-66z" />
<glyph unicode="&#xe9;" horiz-adv-x="1093" d="M127 403v340q0 197 114 310.5t310 113.5q197 0 310.5 -113t113.5 -311v-235h-658v-88q0 -135 60 -204t174 -69q183 0 225 156l174 -49q-34 -125 -136.5 -199.5t-262.5 -74.5q-196 0 -310 113t-114 310zM315 659h469v66q0 135 -59 204.5t-174 69.5q-114 0 -175 -69.5 t-61 -204.5v-66zM492 1307l170 292l149 -90l-217 -268z" />
<glyph unicode="&#xea;" horiz-adv-x="1093" d="M127 403v340q0 197 114 310.5t310 113.5q197 0 310.5 -113t113.5 -311v-235h-658v-88q0 -135 60 -204t174 -69q183 0 225 156l174 -49q-34 -125 -136.5 -199.5t-262.5 -74.5q-196 0 -310 113t-114 310zM315 659h469v66q0 135 -59 204.5t-174 69.5q-114 0 -175 -69.5 t-61 -204.5v-66zM332 1307l143 211h158l143 -211l-139 -45l-84 147l-82 -147z" />
<glyph unicode="&#xeb;" horiz-adv-x="1093" d="M127 403v340q0 197 114 310.5t310 113.5q197 0 310.5 -113t113.5 -311v-235h-658v-88q0 -135 60 -204t174 -69q183 0 225 156l174 -49q-34 -125 -136.5 -199.5t-262.5 -74.5q-196 0 -310 113t-114 310zM221 1372q0 62 27 95.5t78 33.5q54 0 83 -33.5t29 -95.5 q0 -57 -29 -89t-83 -32q-49 0 -77 32t-28 89zM315 659h469v66q0 135 -59 204.5t-174 69.5q-114 0 -175 -69.5t-61 -204.5v-66zM668 1372q0 62 26.5 95.5t77.5 33.5q54 0 82.5 -33.5t28.5 -95.5q0 -57 -28.5 -89t-82.5 -32q-104 0 -104 121z" />
<glyph unicode="&#xec;" horiz-adv-x="464" d="M-6 1509l151 90l168 -292l-102 -66zM14 985v162h314v-1147h-189v985h-125z" />
<glyph unicode="&#xed;" horiz-adv-x="464" d="M14 985v162h314v-1147h-189v985h-125zM166 1307l168 292l149 -90l-215 -268z" />
<glyph unicode="&#xee;" horiz-adv-x="464" d="M12 1307l144 211h157l142 -211l-138 -45l-84 147l-81 -147zM14 985v162h314v-1147h-189v985h-125z" />
<glyph unicode="&#xef;" horiz-adv-x="464" d="M-35 1372q0 59 26.5 91t74.5 32q50 0 77 -31.5t27 -91.5q0 -54 -27.5 -84.5t-76.5 -30.5q-46 0 -73.5 30.5t-27.5 84.5zM14 985v162h314v-1147h-189v985h-125zM258 1372q0 60 26 91.5t74 31.5q50 0 77.5 -31.5t27.5 -91.5q0 -54 -28 -84.5t-77 -30.5q-47 0 -73.5 30.5 t-26.5 84.5z" />
<glyph unicode="&#xf0;" horiz-adv-x="1093" d="M127 389v303q0 197 95 297.5t278 100.5q77 0 150 -27t128 -72v53q0 98 -39 168l-116 -92l-86 113l92 74q-61 28 -131 28q-66 0 -119 -18l-43 158q83 30 170 30q164 0 270 -71l133 106l86 -113l-110 -92q78 -109 78 -258v-680q0 -197 -111 -307t-311 -110 q-191 0 -302.5 107.5t-111.5 301.5zM307 430q0 -146 58 -217.5t176 -71.5q120 0 178.5 71.5t58.5 217.5v377q-43 51 -115 86t-143 35q-116 0 -164.5 -67t-48.5 -210v-221z" />
<glyph unicode="&#xf1;" horiz-adv-x="1099" d="M139 0v1141l189 26v-133q56 58 132 95.5t154 37.5q180 0 264.5 -99.5t84.5 -295.5v-772h-189v745q0 132 -43.5 192t-150.5 60q-69 0 -137.5 -43.5t-114.5 -103.5v-850h-189zM211 1317q6 85 58 143t134 58q49 0 108.5 -23t107.5 -45.5t71 -22.5q65 0 72 76l139 -30 q-8 -90 -57 -145.5t-137 -55.5q-55 0 -152 44t-133 44q-65 0 -72 -76z" />
<glyph unicode="&#xf2;" horiz-adv-x="1097" d="M127 403v340q0 197 114 310.5t310 113.5q197 0 310.5 -113t113.5 -311v-340q0 -198 -113.5 -310.5t-310.5 -112.5q-196 0 -310 113t-114 310zM317 428q0 -137 60.5 -207.5t173.5 -70.5q114 0 173.5 70t59.5 208v291q0 138 -59.5 208t-173.5 70q-113 0 -173.5 -70.5 t-60.5 -207.5v-291zM324 1509l151 90l168 -292l-102 -66z" />
<glyph unicode="&#xf3;" horiz-adv-x="1097" d="M127 403v340q0 197 114 310.5t310 113.5q197 0 310.5 -113t113.5 -311v-340q0 -198 -113.5 -310.5t-310.5 -112.5q-196 0 -310 113t-114 310zM317 428q0 -137 60.5 -207.5t173.5 -70.5q114 0 173.5 70t59.5 208v291q0 138 -59.5 208t-173.5 70q-113 0 -173.5 -70.5 t-60.5 -207.5v-291zM496 1307l168 292l151 -90l-217 -268z" />
<glyph unicode="&#xf4;" horiz-adv-x="1097" d="M127 403v340q0 197 114 310.5t310 113.5q197 0 310.5 -113t113.5 -311v-340q0 -198 -113.5 -310.5t-310.5 -112.5q-196 0 -310 113t-114 310zM317 428q0 -137 60.5 -207.5t173.5 -70.5q114 0 173.5 70t59.5 208v291q0 138 -59.5 208t-173.5 70q-113 0 -173.5 -70.5 t-60.5 -207.5v-291zM328 1307l143 211h158l143 -211l-139 -45l-84 147l-82 -147z" />
<glyph unicode="&#xf5;" horiz-adv-x="1097" d="M127 403v340q0 197 114 310.5t310 113.5q197 0 310.5 -113t113.5 -311v-340q0 -198 -113.5 -310.5t-310.5 -112.5q-196 0 -310 113t-114 310zM207 1317q6 85 58.5 143t135.5 58q49 0 107.5 -23t106 -45.5t69.5 -22.5q67 0 74 76l137 -30q-6 -90 -55.5 -145.5 t-137.5 -55.5q-56 0 -152 44t-132 44q-69 0 -72 -76zM317 428q0 -137 60.5 -207.5t173.5 -70.5q114 0 173.5 70t59.5 208v291q0 138 -59.5 208t-173.5 70q-113 0 -173.5 -70.5t-60.5 -207.5v-291z" />
<glyph unicode="&#xf6;" horiz-adv-x="1097" d="M127 403v340q0 197 114 310.5t310 113.5q197 0 310.5 -113t113.5 -311v-340q0 -198 -113.5 -310.5t-310.5 -112.5q-196 0 -310 113t-114 310zM219 1374q0 61 28 94t79 33q53 0 81.5 -33t28.5 -94q0 -59 -29 -91t-81 -32q-51 0 -79 32t-28 91zM317 428q0 -137 59.5 -207.5 t174.5 -70.5q113 0 173 70.5t60 207.5v291q0 137 -60 207.5t-173 70.5q-115 0 -174.5 -70.5t-59.5 -207.5v-291zM666 1374q0 61 27 94t77 33q54 0 82.5 -32.5t28.5 -94.5q0 -59 -28.5 -91t-82.5 -32q-49 0 -76.5 32t-27.5 91z" />
<glyph unicode="&#xf7;" horiz-adv-x="1130" d="M90 485v177h950v-177h-950zM444 102q0 64 30 95.5t83 31.5q117 0 117 -127q0 -61 -30.5 -91.5t-86.5 -30.5q-53 0 -83 30.5t-30 91.5zM444 1038q0 64 30 96.5t83 32.5q55 0 86 -32.5t31 -96.5q0 -60 -30.5 -90t-86.5 -30q-53 0 -83 30t-30 90z" />
<glyph unicode="&#xf8;" horiz-adv-x="1097" d="M8 229l123 105q-4 23 -4 69v340q0 197 114 310.5t310 113.5q121 0 211 -45t141 -129l101 82l90 -157l-125 -107q6 -30 6 -68v-340q0 -198 -113.5 -310.5t-310.5 -112.5q-121 0 -212 44.5t-142 129.5l-93 -78zM315 494l445 374q-53 131 -209 131q-115 0 -175.5 -71.5 t-60.5 -208.5v-225zM340 276q53 -129 211 -129q113 0 174 72t61 209v225z" />
<glyph unicode="&#xf9;" horiz-adv-x="1079" d="M133 393v748l189 26v-751q0 -141 41 -205t143 -64q83 0 148 34t104 95v865l188 26v-809q0 -114 11.5 -181t43.5 -132l-161 -65q-32 48 -54 122q-57 -55 -138 -88.5t-167 -33.5q-348 0 -348 413zM330 1509l151 90l170 -292l-102 -66z" />
<glyph unicode="&#xfa;" horiz-adv-x="1079" d="M133 393v748l189 26v-751q0 -141 41 -205t143 -64q83 0 148 34t104 95v865l188 26v-809q0 -114 11.5 -181t43.5 -132l-161 -65q-32 48 -54 122q-57 -55 -138 -88.5t-167 -33.5q-348 0 -348 413zM459 1307l170 292l151 -90l-219 -268z" />
<glyph unicode="&#xfb;" horiz-adv-x="1079" d="M133 393v748l189 26v-751q0 -141 41 -205t143 -64q83 0 148 34t104 95v865l188 26v-809q0 -114 11.5 -181t43.5 -132l-161 -65q-32 48 -54 122q-57 -55 -138 -88.5t-167 -33.5q-348 0 -348 413zM319 1307l142 211h157l144 -211l-139 -45l-84 147l-82 -147z" />
<glyph unicode="&#xfc;" horiz-adv-x="1079" d="M133 393v748l189 26v-751q0 -141 41 -205t143 -64q83 0 148 34t104 95v865l188 26v-809q0 -114 11.5 -181t43.5 -132l-161 -65q-32 48 -54 122q-57 -55 -138 -88.5t-167 -33.5q-348 0 -348 413zM213 1372q0 62 27.5 95.5t78.5 33.5q53 0 82 -34t29 -95q0 -57 -29.5 -89 t-81.5 -32q-51 0 -78.5 32t-27.5 89zM659 1372q0 62 27 95.5t78 33.5q52 0 81 -33.5t29 -95.5q0 -57 -29 -89t-81 -32q-51 0 -78 32t-27 89z" />
<glyph unicode="&#xfd;" horiz-adv-x="1103" d="M139 457v684l189 26v-667q-2 -129 44.5 -188.5t155.5 -59.5q71 0 140 37.5t110 93.5v758l191 26v-1112q0 -187 -109 -285t-299 -98t-293.5 70t-115.5 203l180 30q12 -74 65 -103.5t164 -29.5q108 0 165.5 55.5t57.5 180.5v129q-121 -127 -299 -127q-349 0 -346 377z M446 1307l168 292l152 -90l-215 -268z" />
<glyph unicode="&#xfe;" horiz-adv-x="1103" d="M139 -313v1788l191 26v-463q57 60 130.5 94.5t151.5 34.5q365 0 365 -409v-369q0 -187 -108.5 -298t-295.5 -111q-151 0 -243 43v-310zM330 193q87 -43 233 -43q109 0 166 68.5t57 197.5l2 317q0 134 -48 199t-156 65q-69 0 -138.5 -45t-115.5 -106v-653z" />
<glyph unicode="&#xff;" horiz-adv-x="1103" d="M139 457v684l189 26v-667q-2 -129 44.5 -188.5t155.5 -59.5q71 0 140 37.5t110 93.5v758l191 26v-1112q0 -187 -109 -285t-299 -98t-293.5 70t-115.5 203l180 30q12 -74 65 -103.5t164 -29.5q108 0 165.5 55.5t57.5 180.5v129q-121 -127 -299 -127q-349 0 -346 377z M229 1372q0 129 105 129q54 0 82 -33.5t28 -95.5q0 -58 -28.5 -89.5t-81.5 -31.5q-52 0 -78.5 31.5t-26.5 89.5zM674 1372q0 61 27 95t77 34q54 0 82.5 -33.5t28.5 -95.5q0 -57 -28.5 -89t-82.5 -32q-49 0 -76.5 32t-27.5 89z" />
<glyph unicode="&#x152;" horiz-adv-x="1734" d="M123 428v578q0 210 128.5 333t338.5 123q88 0 167 -34t120 -95v101h774v-183h-576v-430h473v-180h-473v-461h590v-180h-788v94q-103 -123 -287 -123q-209 0 -338 123.5t-129 333.5zM322 455q0 -145 75.5 -223t200.5 -78q122 0 200.5 79.5t78.5 217.5v534q0 137 -78.5 216 t-200.5 79q-125 0 -200.5 -77.5t-75.5 -221.5v-526z" />
<glyph unicode="&#x153;" horiz-adv-x="1753" d="M127 403v340q0 198 113.5 311t310.5 113q219 0 328 -155q109 155 327 155q197 0 311.5 -113.5t114.5 -310.5v-211h-659v-129q6 -256 233 -256q189 0 228 156l176 -47q-33 -126 -138 -201t-266 -75q-225 0 -327 153q-102 -153 -328 -153q-197 0 -310.5 112.5t-113.5 310.5 zM317 428q0 -137 59.5 -207.5t174.5 -70.5q227 0 233 249v336q0 262 -233 262q-115 0 -174.5 -70.5t-59.5 -207.5v-291zM975 680l467 2v45q0 133 -60 202.5t-174 69.5q-233 0 -233 -256v-63z" />
<glyph unicode="&#x178;" horiz-adv-x="1087" d="M12 1427l224 27l311 -762l301 742h231l-434 -945v-489h-199v485zM213 1659q0 62 26.5 95.5t77.5 33.5q55 0 84 -33.5t29 -95.5q0 -58 -29 -89.5t-84 -31.5q-51 0 -77.5 31.5t-26.5 89.5zM659 1659q0 62 27 95.5t76 33.5q55 0 83.5 -33.5t28.5 -95.5q0 -58 -28.5 -89.5 t-83.5 -31.5q-49 0 -76 32t-27 89z" />
<glyph unicode="&#x2c6;" horiz-adv-x="704" d="M133 1307l141 211h158l143 -211l-139 -45l-84 147l-82 -147z" />
<glyph unicode="&#x2dc;" horiz-adv-x="868" d="M90 1317q6 86 58 143.5t135 57.5q49 0 108 -23t107 -45.5t71 -22.5q65 0 72 78l139 -35q-8 -88 -57 -143t-137 -55q-56 0 -153 44t-132 44q-69 0 -72 -76z" />
<glyph unicode="&#x2000;" horiz-adv-x="944" />
<glyph unicode="&#x2001;" horiz-adv-x="1888" />
<glyph unicode="&#x2002;" horiz-adv-x="944" />
<glyph unicode="&#x2003;" horiz-adv-x="1888" />
<glyph unicode="&#x2004;" horiz-adv-x="629" />
<glyph unicode="&#x2005;" horiz-adv-x="472" />
<glyph unicode="&#x2006;" horiz-adv-x="314" />
<glyph unicode="&#x2007;" horiz-adv-x="314" />
<glyph unicode="&#x2008;" horiz-adv-x="236" />
<glyph unicode="&#x2009;" horiz-adv-x="377" />
<glyph unicode="&#x200a;" horiz-adv-x="104" />
<glyph unicode="&#x2010;" horiz-adv-x="780" d="M104 530v177h574v-177h-574z" />
<glyph unicode="&#x2011;" horiz-adv-x="780" d="M104 530v177h574v-177h-574z" />
<glyph unicode="&#x2012;" horiz-adv-x="780" d="M104 530v177h574v-177h-574z" />
<glyph unicode="&#x2013;" horiz-adv-x="989" d="M16 530v177h961v-177h-961z" />
<glyph unicode="&#x2014;" horiz-adv-x="1628" d="M16 530v177h1600v-177h-1600z" />
<glyph unicode="&#x2018;" horiz-adv-x="413" d="M86 1411q0 61 32 93t87 32q51 0 80.5 -32t29.5 -93q0 -73 -43 -102q0 -38 25.5 -68t62.5 -47l-45 -100q-67 19 -115 57.5t-71.5 86t-33 89.5t-9.5 84z" />
<glyph unicode="&#x2019;" horiz-adv-x="413" d="M57 1194q36 17 61 47t25 68q-43 29 -43 102q0 61 30.5 93t82.5 32q54 0 86.5 -32t32.5 -93q0 -42 -10 -84.5t-34 -89.5t-72.5 -85.5t-115.5 -57.5z" />
<glyph unicode="&#x201a;" horiz-adv-x="413" d="M57 -115q36 17 61 47t25 68q-43 29 -43 100q0 62 30.5 94.5t82.5 32.5q54 0 86.5 -33t32.5 -94q0 -40 -10 -82t-34 -89t-72.5 -86t-115.5 -58z" />
<glyph unicode="&#x201c;" horiz-adv-x="735" d="M86 1411q0 61 32 93t87 32q51 0 80.5 -32t29.5 -93q0 -73 -43 -102q0 -38 25.5 -68t62.5 -47l-45 -100q-67 19 -115 57.5t-71.5 86t-33 89.5t-9.5 84zM408 1411q0 62 31.5 93.5t86.5 31.5q51 0 81 -32t30 -93q0 -73 -43 -102q1 -38 27 -68t61 -47l-45 -100 q-67 19 -115 57.5t-71.5 86t-33 89.5t-9.5 84z" />
<glyph unicode="&#x201d;" horiz-adv-x="735" d="M57 1194q36 17 61 47t25 68q-43 29 -43 102q0 61 30.5 93t82.5 32q54 0 86.5 -32t32.5 -93q0 -42 -10 -84.5t-34 -89.5t-72.5 -85.5t-115.5 -57.5zM379 1194q35 18 60.5 47.5t25.5 67.5q-43 29 -43 102q0 61 30.5 93t82.5 32q54 0 85 -32t31 -93q0 -42 -9.5 -84 t-33 -89.5t-71.5 -86t-115 -57.5z" />
<glyph unicode="&#x201e;" horiz-adv-x="735" d="M57 -115q36 17 61 47t25 68q-43 29 -43 100q0 62 30.5 94.5t82.5 32.5q54 0 86.5 -33t32.5 -94q0 -40 -10 -82t-34 -89t-72.5 -86t-115.5 -58zM379 -115q35 18 60.5 47.5t25.5 67.5q-43 29 -43 100q0 62 30.5 94.5t82.5 32.5q54 0 85 -32.5t31 -94.5q0 -41 -9.5 -82.5 t-33 -88.5t-71.5 -86t-115 -58z" />
<glyph unicode="&#x2022;" horiz-adv-x="849" d="M121 659q0 169 80 255.5t219 86.5q144 0 227.5 -86.5t83.5 -255.5q0 -162 -83.5 -244.5t-227.5 -82.5q-140 0 -219.5 82t-79.5 245z" />
<glyph unicode="&#x2026;" horiz-adv-x="1060" d="M86 98q0 63 28 96t79 33q53 0 82.5 -32.5t29.5 -96.5q0 -59 -29.5 -90t-82.5 -31q-50 0 -78.5 31t-28.5 90zM420 98q0 63 28.5 96t79.5 33q54 0 83.5 -33t29.5 -96q0 -59 -30 -90t-83 -31q-51 0 -79.5 31t-28.5 90zM756 98q0 63 28.5 96t79.5 33q113 0 113 -129 q0 -59 -29 -90t-84 -31q-51 0 -79.5 31t-28.5 90z" />
<glyph unicode="&#x202f;" horiz-adv-x="377" />
<glyph unicode="&#x2039;" horiz-adv-x="575" d="M104 512v121l289 305l92 -117l-229 -250l229 -247l-92 -117z" />
<glyph unicode="&#x203a;" horiz-adv-x="575" d="M92 324l232 247l-232 250l92 117l291 -305v-121l-291 -305z" />
<glyph unicode="&#x205f;" horiz-adv-x="472" />
<glyph unicode="&#x20ac;" horiz-adv-x="1228" />
<glyph unicode="&#x2122;" horiz-adv-x="1746" d="M59 1300v138h654v-138h-248v-811h-154v811h-252zM766 489v949h158l284 -525l279 525h160v-949h-152l4 662l-225 -414h-135l-224 412l5 -660h-154z" />
<glyph unicode="&#x25fc;" horiz-adv-x="1167" d="M0 0v1167h1167v-1167h-1167z" />
<glyph unicode="&#xfb01;" horiz-adv-x="1067" d="M16 979v168h123v45q0 90 25 151.5t76 95.5t117.5 48t160.5 14q78 0 179.5 -22t158.5 -45l-43 -142q-56 18 -145 32.5t-150 14.5q-101 0 -144.5 -30t-43.5 -103v-59h588v-1147h-189v979h-399v-979h-191v979h-123z" />
<glyph unicode="&#xfb02;" horiz-adv-x="1048" d="M16 911v162h123v49q-3 175 106 275t296 100q102 0 199.5 -28.5t170.5 -73.5v-1395h-190v1300q-86 27 -172 27q-105 0 -163 -57t-58 -160v-37h290v-162h-288v-911h-191v911h-123z" />
<glyph unicode="&#xfb03;" horiz-adv-x="1533" d="M16 985v162h123q0 200 93 286.5t270 86.5q64 0 138 -25t130 -61q111 122 307 122q66 0 144 -14.5t127 -36.5l-39 -141q-128 33 -222 33q-110 0 -164.5 -57.5t-54.5 -192.5h531v-1147h-191v985h-340v-985h-188v985h-350v-985h-191v985h-123zM330 1147h350q0 93 27 158 q-91 51 -187 51q-102 0 -146 -42.5t-44 -166.5z" />
<glyph unicode="&#xfb04;" horiz-adv-x="1585" d="M16 911v162h123v74q0 191 97.5 282t273.5 91q132 0 270 -84q108 120 301 120t367 -100v-1456h-188v1360q-83 26 -173 26q-219 0 -219 -260v-53h289v-162h-289v-911h-188v911h-350v-911h-191v911h-123zM330 1073h350v78q0 85 27 147q-93 52 -187 52q-101 0 -145.5 -47.5 t-44.5 -178.5v-51z" />
</font>
</defs>
</svg>
